<mxfile host="app.diagrams.net" modified="2021-08-17T06:48:07.421Z" agent="5.0 (Macintosh; Intel Mac OS X 10_15_7) AppleWebKit/537.36 (KHTML, like Gecko) Chrome/92.0.4515.131 Safari/537.36" etag="eV_lZHMFf24-BeNJNrRP" version="14.9.6" type="github">
  <diagram id="wKcYc2Z8ubOa0SPh2_ZS" name="Page-1">
    <mxGraphModel dx="2719" dy="1228" grid="1" gridSize="10" guides="1" tooltips="1" connect="1" arrows="1" fold="1" page="1" pageScale="1" pageWidth="827" pageHeight="1169" math="0" shadow="0">
      <root>
        <mxCell id="0" />
        <mxCell id="1" parent="0" />
        <mxCell id="e_e6QgXlBwtvrFS-NyKw-1" value="Pipeline Structure&lt;br&gt;" style="text;html=1;align=center;verticalAlign=middle;resizable=0;points=[];autosize=1;strokeColor=none;" vertex="1" parent="1">
          <mxGeometry x="330" y="10" width="110" height="20" as="geometry" />
        </mxCell>
        <mxCell id="e_e6QgXlBwtvrFS-NyKw-22" style="edgeStyle=orthogonalEdgeStyle;rounded=0;orthogonalLoop=1;jettySize=auto;html=1;entryX=0;entryY=0.5;entryDx=0;entryDy=0;entryPerimeter=0;" edge="1" parent="1" source="e_e6QgXlBwtvrFS-NyKw-2" target="e_e6QgXlBwtvrFS-NyKw-14">
          <mxGeometry relative="1" as="geometry" />
        </mxCell>
        <mxCell id="e_e6QgXlBwtvrFS-NyKw-2" value="Cat Pipeline([&lt;br&gt;&#39;imputer&#39;&lt;br&gt;&#39;transformer&#39;&lt;br&gt;)]" style="whiteSpace=wrap;html=1;" vertex="1" parent="1">
          <mxGeometry x="-500" y="140" width="120" height="60" as="geometry" />
        </mxCell>
        <mxCell id="e_e6QgXlBwtvrFS-NyKw-4" style="edgeStyle=orthogonalEdgeStyle;rounded=0;orthogonalLoop=1;jettySize=auto;html=1;entryX=0;entryY=0.333;entryDx=0;entryDy=0;entryPerimeter=0;" edge="1" parent="1" source="e_e6QgXlBwtvrFS-NyKw-3" target="e_e6QgXlBwtvrFS-NyKw-2">
          <mxGeometry relative="1" as="geometry" />
        </mxCell>
        <mxCell id="e_e6QgXlBwtvrFS-NyKw-3" value="Fillna_cat_method()" style="text;html=1;align=center;verticalAlign=middle;resizable=0;points=[];autosize=1;strokeColor=none;" vertex="1" parent="1">
          <mxGeometry x="-680" y="120" width="120" height="20" as="geometry" />
        </mxCell>
        <mxCell id="e_e6QgXlBwtvrFS-NyKw-6" style="edgeStyle=orthogonalEdgeStyle;rounded=0;orthogonalLoop=1;jettySize=auto;html=1;entryX=0.011;entryY=0.669;entryDx=0;entryDy=0;entryPerimeter=0;" edge="1" parent="1" source="e_e6QgXlBwtvrFS-NyKw-5" target="e_e6QgXlBwtvrFS-NyKw-2">
          <mxGeometry relative="1" as="geometry" />
        </mxCell>
        <mxCell id="e_e6QgXlBwtvrFS-NyKw-5" value="Encode_data()&lt;br&gt;" style="text;html=1;align=center;verticalAlign=middle;resizable=0;points=[];autosize=1;strokeColor=none;" vertex="1" parent="1">
          <mxGeometry x="-680" y="200" width="90" height="20" as="geometry" />
        </mxCell>
        <mxCell id="e_e6QgXlBwtvrFS-NyKw-20" style="edgeStyle=orthogonalEdgeStyle;rounded=0;orthogonalLoop=1;jettySize=auto;html=1;entryX=0;entryY=0.5;entryDx=0;entryDy=0;entryPerimeter=0;" edge="1" parent="1" source="e_e6QgXlBwtvrFS-NyKw-7" target="e_e6QgXlBwtvrFS-NyKw-14">
          <mxGeometry relative="1" as="geometry" />
        </mxCell>
        <mxCell id="e_e6QgXlBwtvrFS-NyKw-7" value="Num Pipeline([&lt;br&gt;&#39;imputer&#39;&lt;br&gt;&#39;scaler&#39;&lt;br&gt;])" style="rounded=0;whiteSpace=wrap;html=1;" vertex="1" parent="1">
          <mxGeometry x="-500" y="290" width="120" height="60" as="geometry" />
        </mxCell>
        <mxCell id="e_e6QgXlBwtvrFS-NyKw-13" style="edgeStyle=orthogonalEdgeStyle;rounded=0;orthogonalLoop=1;jettySize=auto;html=1;entryX=-0.013;entryY=0.35;entryDx=0;entryDy=0;entryPerimeter=0;" edge="1" parent="1" source="e_e6QgXlBwtvrFS-NyKw-8" target="e_e6QgXlBwtvrFS-NyKw-7">
          <mxGeometry relative="1" as="geometry" />
        </mxCell>
        <mxCell id="e_e6QgXlBwtvrFS-NyKw-8" value="Fillna_num_method()" style="text;html=1;align=center;verticalAlign=middle;resizable=0;points=[];autosize=1;strokeColor=none;" vertex="1" parent="1">
          <mxGeometry x="-680" y="270" width="130" height="20" as="geometry" />
        </mxCell>
        <mxCell id="e_e6QgXlBwtvrFS-NyKw-12" style="edgeStyle=orthogonalEdgeStyle;rounded=0;orthogonalLoop=1;jettySize=auto;html=1;entryX=-0.023;entryY=0.674;entryDx=0;entryDy=0;entryPerimeter=0;" edge="1" parent="1" source="e_e6QgXlBwtvrFS-NyKw-11" target="e_e6QgXlBwtvrFS-NyKw-7">
          <mxGeometry relative="1" as="geometry" />
        </mxCell>
        <mxCell id="e_e6QgXlBwtvrFS-NyKw-11" value="Normalize_data()" style="text;html=1;align=center;verticalAlign=middle;resizable=0;points=[];autosize=1;strokeColor=none;" vertex="1" parent="1">
          <mxGeometry x="-680" y="350" width="110" height="20" as="geometry" />
        </mxCell>
        <mxCell id="e_e6QgXlBwtvrFS-NyKw-14" value="ColumnTransformer([&lt;br&gt;&amp;nbsp; &amp;nbsp; &amp;nbsp; &amp;nbsp; &amp;nbsp; &amp;nbsp; &amp;nbsp; &amp;nbsp; &amp;nbsp; &amp;nbsp; &amp;nbsp; &amp;nbsp; &amp;nbsp; &amp;nbsp; &amp;nbsp; &amp;nbsp; &amp;nbsp; &amp;nbsp; &amp;nbsp; &amp;nbsp; &amp;nbsp; &amp;nbsp; &amp;nbsp; &amp;nbsp; &amp;nbsp; &amp;nbsp; &amp;nbsp; Cat Pipeline, &lt;br&gt;&amp;nbsp; &amp;nbsp; &amp;nbsp; &amp;nbsp; &amp;nbsp; &amp;nbsp; &amp;nbsp; &amp;nbsp; &amp;nbsp; &amp;nbsp; &amp;nbsp; &amp;nbsp; &amp;nbsp; &amp;nbsp; &amp;nbsp; &amp;nbsp; &amp;nbsp; &amp;nbsp; &amp;nbsp; &amp;nbsp; &amp;nbsp; &amp;nbsp; &amp;nbsp; &amp;nbsp; &amp;nbsp; &amp;nbsp; &amp;nbsp; &amp;nbsp;Num Pipeline&lt;br&gt;&amp;nbsp; &amp;nbsp; &amp;nbsp; &amp;nbsp; &amp;nbsp; &amp;nbsp; &amp;nbsp; &amp;nbsp; &amp;nbsp; &amp;nbsp; &amp;nbsp; &amp;nbsp; &amp;nbsp; &amp;nbsp; &amp;nbsp; &amp;nbsp; &amp;nbsp; &amp;nbsp;])" style="text;html=1;align=center;verticalAlign=middle;resizable=0;points=[];autosize=1;fillColor=#f5f5f5;strokeColor=#666666;fontColor=#333333;" vertex="1" parent="1">
          <mxGeometry x="-380" y="210" width="270" height="60" as="geometry" />
        </mxCell>
      </root>
    </mxGraphModel>
  </diagram>
</mxfile>
